<svg width="49" height="53" viewBox="0 0 49 53" fill="none" xmlns="http://www.w3.org/2000/svg">
<path d="M24.256 26.3861C24.256 26.3861 27.365 32.0573 33.511 35.344C39.657 38.6317 46.513 38.2898 46.513 38.2898C46.513 38.2898 43.405 32.6177 37.259 29.331C31.113 26.0443 24.256 26.3861 24.256 26.3861ZM24.256 26.3861C24.256 26.3861 17.4 26.0443 11.254 29.331C5.108 32.6177 2 38.2898 2 38.2898C2 38.2898 8.856 38.6317 15.002 35.344C21.148 32.0573 24.256 26.3861 24.256 26.3861ZM24.256 26.1888C24.256 26.1888 21.148 20.5177 15.002 17.2309C8.856 13.9433 2 14.286 2 14.286C2 14.286 5.108 19.9572 11.254 23.2449C17.4 26.5316 24.256 26.1888 24.256 26.1888ZM24.256 26.1888C24.256 26.1888 31.113 26.5316 37.259 23.2449C43.405 19.9572 46.513 14.286 46.513 14.286C46.513 14.286 39.657 13.9433 33.511 17.2309C27.365 20.5177 24.256 26.1888 24.256 26.1888ZM28.004 38.6715C28.004 45.2459 24.256 50.5752 24.256 50.5752C24.256 50.5752 20.508 45.2459 20.508 38.6715C20.508 32.0971 24.256 26.7669 24.256 26.7669C24.256 26.7669 28.004 32.0971 28.004 38.6715ZM20.508 13.9035C20.508 7.33003 24.256 1.99976 24.256 1.99976C24.256 1.99976 28.004 7.33003 28.004 13.9035C28.004 20.4778 24.256 25.8072 24.256 25.8072C24.256 25.8072 20.508 20.4778 20.508 13.9035Z" stroke="#6B0058" stroke-width="2" stroke-miterlimit="10"/>
</svg>
